<svg width="7696" height="1861" xmlns="http://www.w3.org/2000/svg" xmlns:xlink="http://www.w3.org/1999/xlink" overflow="hidden"><defs><clipPath id="clip0"><rect x="1402" y="1263" width="7696" height="1861"/></clipPath></defs><g clip-path="url(#clip0)" transform="translate(-1402 -1263)"><path d="M7046.52 1667.6C6968.94 1795.49 6881.09 1931.78 6801.65 2062.47L6558.65 1667.6 6276.39 1667.6C6401.63 1860.84 6555.84 2094.21 6681.08 2286.51L6681.08 2700.06 6913.8 2700.06 6913.8 2286.51 7324.1 1667.6 7046.52 1667.6ZM8029.73 2227.7 7843.74 2179.16 7843.74 2179.16C7832.53 2227.7 7815.71 2276.25 7794.21 2321.99L7532.52 2005.53C7507.28 1975.66 7487.66 1951.39 7487.66 1908.44 7487.66 1865.5 7518.5 1840.3 7568.97 1840.3 7619.44 1840.3 7705.42 1870.17 7782.06 1941.12L7883 1769.35 7883 1769.35C7864.31 1754.42 7844.68 1741.35 7824.12 1729.21 7749.35 1686.27 7664.3 1662.93 7578.31 1662 7416.62 1662 7285.78 1753.48 7285.78 1911.25L7285.78 1911.25C7286.71 1963.52 7301.67 2015.8 7327.84 2061.54 7342.79 2085.81 7359.61 2108.21 7380.17 2127.82 7326.9 2165.16 7180.17 2244.51 7180.17 2420.94 7180.17 2605.77 7314.75 2719.66 7523.17 2719.66L7523.17 2719.66C7524.11 2719.66 7524.11 2719.66 7525.04 2719.66 7599.81 2719.66 7672.71 2700.99 7738.13 2662.72 7756.83 2652.45 7775.52 2639.38 7792.34 2625.38L7854.96 2699.12 8108.24 2699.12 7925.06 2476.95 7925.06 2476.95C7931.6 2466.68 7938.14 2456.41 7943.75 2446.14 7983 2378 8011.98 2304.25 8029.73 2227.7ZM7524.11 2527.36C7453.07 2527.36 7392.32 2491.88 7392.32 2418.14 7392.32 2361.19 7425.97 2314.52 7498.87 2272.51L7671.77 2480.68 7671.77 2480.68C7666.17 2484.42 7659.62 2488.15 7654.02 2491.88 7614.76 2514.29 7569.9 2526.42 7524.11 2527.36ZM8767.15 2282.78C8854.06 2262.24 8996.13 2153.02 8998.93 1990.59 9001.73 1784.29 8846.59 1667.6 8593.31 1667.6L8126 1667.6 8126 2700.06 8357.78 2700.06 8357.78 2321.99 8524.15 2321.99C8583.03 2418.14 8755.93 2676.72 8919.49 2756.07L9097.07 2629.11C8901.73 2505.89 8781.17 2304.25 8767.15 2282.78ZM8614.8 2110.08 8358.72 2110.08 8358.72 1875.77 8610.13 1875.77C8709.2 1875.77 8763.41 1918.71 8763.41 1990.59 8763.41 2058.74 8698.92 2110.08 8614.8 2110.08ZM6045.54 1666.67 5812.82 1666.67 5812.82 2701.92 6546.5 2701.92 6546.5 2494.69 6045.54 2494.69 6045.54 1666.67ZM5203.45 1666.67 5021.2 2321.99 4838.02 1666.67 4586.61 1666.67 4285.66 2702.86 4547.35 2702.86 4728.67 2066.21 4889.42 2702.86 5124.94 2702.86 5311.87 2066.21 5476.36 2702.86 5712.82 2702.86 5458.6 1666.67 5203.45 1666.67ZM4163.22 1666.67C4092.19 1873.91 4028.64 2136.22 3940.79 2359.33 3854.8 2136.22 3790.31 1873.91 3718.35 1666.67L3466 1666.67 3797.79 2701.92 4085.65 2701.92 4417.44 1666.67 4163.22 1666.67Z" fill="#07002D" fill-rule="evenodd"/><path d="M2200.91 2724.75 1802.86 3123.07 2069.16 3123.07 2334.53 2858.14 2599.9 3123.07 2867.14 3123.07 2334.53 2592.29 2200.91 2724.75ZM2734.46 2193.03 3267.07 2723.81 3267.07 2457.02 3001.7 2193.03 3267.07 1929.04 3267.07 1663.18 2734.46 2193.03ZM1402 1929.04 1667.37 2193.03 1402 2457.02 1402 2723.81 1934.61 2193.03 1402 1662.25 1402 1929.04ZM2599.9 1263 2334.53 1527.92 2069.16 1263 1802.86 1263 2334.53 1793.78 2867.14 1263 2599.9 1263ZM3133.45 1263 2334.53 2060.57 1535.62 1263 1402 1263 1402 1396.39 2200.91 2193.03 1402 2989.67 1402 3123.07 1535.62 3123.07 2334.53 2325.5 3133.45 3123.07 3267.07 3123.07 3267.07 2988.74 2468.15 2193.03 3267.07 1396.39 3267.07 1263 3133.45 1263Z" fill="#00AEEF" fill-rule="evenodd"/></g></svg>